<svg width="16" height="17" viewBox="0 0 16 17" fill="none" xmlns="http://www.w3.org/2000/svg">
<path d="M12 7.5V13.25C12 13.4142 11.9677 13.5767 11.9048 13.7284C11.842 13.88 11.75 14.0178 11.6339 14.1339C11.5178 14.25 11.38 14.342 11.2284 14.4048C11.0767 14.4677 10.9142 14.5 10.75 14.5H3.25C2.91848 14.5 2.60054 14.3683 2.36612 14.1339C2.1317 13.8995 2 13.5815 2 13.25V5.75C2 5.41848 2.1317 5.10054 2.36612 4.86612C2.60054 4.6317 2.91848 4.5 3.25 4.5H8.48375" stroke="white" stroke-linecap="round" stroke-linejoin="round"/>
<path d="M14.3732 2.16407C14.3275 2.1139 14.2721 2.0735 14.2104 2.04533C14.1487 2.01715 14.0819 2.00178 14.0141 2.00015C13.9463 1.99851 13.8788 2.01064 13.8158 2.03581C13.7528 2.06098 13.6956 2.09866 13.6475 2.14657L13.261 2.53126C13.2141 2.57814 13.1878 2.6417 13.1878 2.70798C13.1878 2.77425 13.2141 2.83782 13.261 2.8847L13.6154 3.23845C13.6386 3.26178 13.6662 3.2803 13.6966 3.29294C13.727 3.30558 13.7596 3.31208 13.7925 3.31208C13.8255 3.31208 13.8581 3.30558 13.8885 3.29294C13.9189 3.2803 13.9465 3.26178 13.9697 3.23845L14.3466 2.86345C14.5372 2.67313 14.555 2.36313 14.3732 2.16407ZM12.4794 3.31251L6.83816 8.94376C6.80396 8.97782 6.7791 9.02012 6.76598 9.06657L6.50504 9.84376C6.49879 9.86485 6.49834 9.88723 6.50376 9.90855C6.50917 9.92987 6.52023 9.94933 6.53579 9.96488C6.55134 9.98044 6.5708 9.9915 6.59212 9.99692C6.61344 10.0023 6.63583 10.0019 6.65691 9.99563L7.43348 9.7347C7.47993 9.72157 7.52222 9.69671 7.55629 9.66251L13.1875 4.02063C13.2396 3.96798 13.2689 3.8969 13.2689 3.82282C13.2689 3.74875 13.2396 3.67767 13.1875 3.62501L12.8766 3.31251C12.8239 3.25994 12.7525 3.23041 12.678 3.23041C12.6036 3.23041 12.5321 3.25994 12.4794 3.31251Z" fill="white"/>
</svg>
