<svg  viewBox="0 0 24 16" fill="none" xmlns="http://www.w3.org/2000/svg">
<path d="M11.9841 1.25C8.33067 1.25 4.58301 3.36453 1.6327 7.59359C1.54849 7.71564 1.50234 7.8599 1.50009 8.00816C1.49783 8.15642 1.53958 8.30202 1.62004 8.42656C3.88692 11.975 7.58442 14.75 11.9841 14.75C16.336 14.75 20.1094 11.9666 22.3805 8.41016C22.4591 8.28805 22.5009 8.14591 22.5009 8.0007C22.5009 7.8555 22.4591 7.71335 22.3805 7.59125C20.1043 4.07562 16.3032 1.25 11.9841 1.25Z" stroke="currentColor" stroke-width="1.5" stroke-linecap="round" stroke-linejoin="round"/>
<path d="M12 11.75C14.0711 11.75 15.75 10.0711 15.75 8C15.75 5.92893 14.0711 4.25 12 4.25C9.92893 4.25 8.25 5.92893 8.25 8C8.25 10.0711 9.92893 11.75 12 11.75Z" stroke="currentColor" stroke-width="1.5" stroke-miterlimit="10"/>
</svg>
