<svg width="2rem" height="2rem" viewBox="0 0 16 16" fill="none" xmlns="http://www.w3.org/2000/svg">
<path d="M12.3197 6.17375C11.9325 5.14591 11.368 4.19398 10.6519 3.36125C9.4125 1.92656 7.78281 1 6.5 1C6.42372 1.00006 6.34847 1.01756 6.28 1.05118C6.21153 1.0848 6.15166 1.13364 6.10497 1.19396C6.05829 1.25428 6.02602 1.32448 6.01064 1.39919C5.99526 1.47391 5.99718 1.55114 6.01625 1.625C6.44969 3.28125 5.55125 4.65844 4.60031 6.11625C3.8125 7.32375 3 8.57094 3 10C3 12.7569 5.24312 15 8 15C10.7569 15 13 12.7569 13 10C13 8.64687 12.7713 7.35969 12.3197 6.17375ZM9.01031 13.0841C8.6875 13.4278 8.28281 13.5 8 13.5C7.71719 13.5 7.3125 13.4278 6.98969 13.0841C6.66687 12.7403 6.5 12.195 6.5 11.5C6.5 10.7144 6.77562 10.1163 7.04187 9.53813C7.19656 9.2025 7.35437 8.86094 7.44812 8.49531C7.45808 8.45554 7.47766 8.41883 7.50515 8.38841C7.53263 8.35799 7.56718 8.3348 7.60574 8.32087C7.6443 8.30695 7.68569 8.30272 7.72627 8.30856C7.76685 8.31441 7.80537 8.33014 7.83844 8.35437C8.12425 8.57551 8.37839 8.8348 8.59375 9.125C9.16156 9.875 9.5 10.7631 9.5 11.5C9.5 12.195 9.33062 12.7428 9.01031 13.0841Z" fill="#7EADF4"/>
</svg>
