<svg width="16" height="16" viewBox="0 0 16 16" fill="none" xmlns="http://www.w3.org/2000/svg">
<path d="M10.5238 5.03114L4.69475 7.60457C4.36756 7.75457 4.47756 8.25051 4.83756 8.25051H7.62506C7.65821 8.25051 7.69001 8.26368 7.71345 8.28712C7.73689 8.31056 7.75006 8.34236 7.75006 8.37551V11.1624C7.75006 11.5224 8.25006 11.6311 8.39943 11.3049L10.9688 5.47614C10.9976 5.41386 11.0065 5.34425 10.9945 5.27672C10.9825 5.20918 10.95 5.14696 10.9015 5.09846C10.853 5.04995 10.7908 5.01748 10.7232 5.00545C10.6557 4.99341 10.5861 5.00238 10.5238 5.03114Z" fill="black"/>
<path d="M14 8C14 4.6875 11.3125 2 8 2C4.6875 2 2 4.6875 2 8C2 11.3125 4.6875 14 8 14C11.3125 14 14 11.3125 14 8Z" stroke="black" stroke-miterlimit="10"/>
</svg>
