<svg width="21" height="21" viewBox="0 0 21 21" fill="none" xmlns="http://www.w3.org/2000/svg">
<path d="M17.9195 9.53736C18.3247 9.2595 18.128 8.625 17.6367 8.625H12.8945C12.6779 8.625 12.4859 8.48554 12.419 8.27954L10.9755 3.83813C10.8258 3.37752 10.1742 3.37752 10.0245 3.83813L8.58102 8.27954C8.51408 8.48554 8.32211 8.625 8.10551 8.625H3.3633C2.87196 8.625 2.67531 9.2595 3.08053 9.53736L6.90682 12.1611C7.09135 12.2876 7.16935 12.5214 7.0978 12.7334L5.61004 17.1415C5.45433 17.6029 5.98288 17.992 6.37718 17.7063L10.2066 14.9313C10.3816 14.8045 10.6184 14.8045 10.7934 14.9313L14.6228 17.7063C15.0171 17.992 15.5457 17.6029 15.39 17.1415L13.9022 12.7334C13.8306 12.5214 13.9086 12.2876 14.0932 12.1611L17.9195 9.53736Z" stroke="#5C5C5C" stroke-linejoin="round"/>
</svg>
