<svg width="20" height="21" viewBox="0 0 20 21" fill="none" xmlns="http://www.w3.org/2000/svg">
<path d="M6.66666 6.05567C8.28888 5.04456 10.7222 3.83345 11.8722 3.83345H15.2055C16.048 4.81839 16.6744 5.96909 17.0444 7.21123C17.5092 8.63257 17.7564 10.116 17.7778 11.6112H12.7778V17.1668C12.757 17.372 12.681 17.5677 12.5577 17.7331C12.4344 17.8985 12.2685 18.0272 12.0778 18.1057C11.65 16.9946 10.6222 14.4557 9.72777 13.2612C8.94818 12.2504 7.88109 11.499 6.66666 11.1057V12.289C7.52982 12.6349 8.28127 13.2115 8.83888 13.9557C9.88332 15.3501 11.2222 19.0168 11.2333 19.0501C11.2802 19.1803 11.3739 19.2883 11.4961 19.3531C11.6184 19.4178 11.7604 19.4346 11.8944 19.4001C12.6389 19.1779 13.8889 18.5001 13.8889 17.1668V12.7223H18.3333C18.4807 12.7223 18.622 12.6638 18.7262 12.5596C18.8303 12.4554 18.8889 12.3141 18.8889 12.1668C18.9322 10.3542 18.6692 8.54737 18.1111 6.82234C17.0611 3.82234 15.8333 2.85567 15.7778 2.81123C15.6773 2.74582 15.5585 2.71464 15.4389 2.72234H11.8722C10.5222 2.72234 8.23888 3.83345 6.66666 4.73901V6.05567Z" fill="white"/>
<path d="M1.11111 3.27783H5C5.14735 3.27783 5.28865 3.33636 5.39284 3.44055C5.49703 3.54474 5.55556 3.68605 5.55556 3.83339V12.7223C5.55556 12.8696 5.49703 13.0109 5.39284 13.1151C5.28865 13.2193 5.14735 13.2778 5 13.2778H1.11111V3.27783ZM4.44445 4.38894H2.22223V12.1667H4.44445V4.38894Z" fill="white"/>
</svg>
