<svg width="20" height="21" viewBox="0 0 20 21" fill="none" xmlns="http://www.w3.org/2000/svg">
<path d="M13.3333 14.9443C11.7111 15.9555 9.27777 17.1666 8.12777 17.1666H4.79444C3.952 16.1816 3.32555 15.0309 2.95555 13.7888C2.49079 12.3675 2.24356 10.884 2.22221 9.38879H7.22221V3.83324C7.24294 3.62802 7.319 3.43228 7.44229 3.26692C7.56557 3.10156 7.73145 2.97279 7.92221 2.89435C8.34999 4.00546 9.37777 6.54435 10.2722 7.73879C11.0518 8.74963 12.1189 9.50104 13.3333 9.89435V8.71101C12.4702 8.36508 11.7187 7.78852 11.1611 7.04435C10.1167 5.6499 8.77777 1.98323 8.76666 1.9499C8.71773 1.82177 8.62313 1.71627 8.50108 1.6537C8.37903 1.59113 8.23814 1.57593 8.10555 1.61101C7.3611 1.82212 6.1111 2.4999 6.1111 3.83324V8.27768H1.66666C1.51932 8.27768 1.37801 8.33621 1.27382 8.4404C1.16963 8.54459 1.1111 8.68589 1.1111 8.83324C1.0678 10.6458 1.33075 12.4527 1.88888 14.1777C2.93888 17.1777 4.16666 18.1443 4.22221 18.1888C4.31919 18.2641 4.43835 18.3051 4.5611 18.3055H8.12777C9.47777 18.3055 11.7667 17.1943 13.3333 16.2888V14.9443Z" fill="white"/>
<path d="M18.8889 17.7222H15C14.8527 17.7222 14.7114 17.6636 14.6072 17.5595C14.503 17.4553 14.4445 17.314 14.4445 17.1666V8.27772C14.4445 8.13038 14.503 7.98907 14.6072 7.88489C14.7114 7.7807 14.8527 7.72217 15 7.72217H18.8889V17.7222ZM15.5556 16.6111H17.7778V8.83328H15.5556V16.6111Z" fill="white"/>
</svg>
